<svg viewBox="0 0 2048 1329.1012" xmlns="http://www.w3.org/2000/svg">
<path d="M989.39 730.57l9.42 7.78c-60.897 40.933-135.877 65.332-216.556 65.332-216.262 0-391.578-175.315-391.578-391.578S565.99 20.526 782.254 20.526c80.68 0 155.66 24.4 217.964 66.22l-1.408-.89-9.42 7.783C900.24 171.37 844.224 285.144 844.224 412s56.016 240.63 144.662 317.933l.503.43zm276.684-710.043h-.762c-80.563 0-155.408 24.482-217.5 66.414l1.38-.877 9.42 7.782c89.148 77.733 145.164 191.506 145.164 318.362s-56.016 240.628-144.662 317.932l-.503.428-9.42 7.782c61.05 41.184 136.274 65.74 217.233 65.74 216.375 0 391.782-175.406 391.782-391.78S1482.798 20.526 1266.423 20.526h-.37.02zM1024 104.495q-7.578 5.94-14.746 12.288C926.48 188.93 874.468 294.546 874.468 412.31s52.012 223.378 134.318 295.126l.468.4q7.168 6.348 14.746 12.287 7.578-5.94 14.746-12.288c82.773-72.147 134.786-177.763 134.786-295.526s-52.012-223.38-134.318-295.128l-.468-.4q-7.168-6.348-14.746-12.287zM824.115 938.44l-10.65-1.433c-9.83-1.23-17.613-3.277-17.613-10.24s7.373-12.288 20.48-12.288c11.948.222 23.075 3.54 32.673 9.18l-.314-.17 9.83-18.227c-11.353-6.85-25.064-10.9-39.72-10.9-.94 0-1.876.017-2.807.05l.135-.004c-26.42 0-43.213 12.697-43.213 33.38 0 17 12.698 27.444 35.84 30.72l10.65 1.435c12.493 1.638 18.227 4.915 18.227 10.854s-8.192 12.697-23.757 12.697c-.694.03-1.507.05-2.324.05-12.56 0-24.148-4.174-33.45-11.21l.14.1-10.65 17.614c11.978 8.475 26.886 13.547 42.98 13.547.73 0 1.457-.01 2.183-.03h-.107c30.106 0 47.514-14.13 47.514-33.996s-13.312-27.442-36.045-31.13zm110.592 43.623c-11.264 0-14.95-6.963-14.95-17.408V917.55h37.07v-20.48h-37.07v-31.743H896.82v31.54h-20.48v20.48h20.48v47.513c0 24.166 9.42 38.502 36.044 38.502h.212c10.387 0 20.08-2.974 28.273-8.118l-.223.13-6.554-19.456c-5.654 3.57-12.467 5.814-19.778 6.14l-.088.004zm-357.17-87.654c-.66-.04-1.432-.06-2.208-.06-14.26 0-26.82 7.287-34.154 18.34l-.094.15c-6.83-11.144-18.94-18.466-32.764-18.466-.578 0-1.152.013-1.724.038l.08-.003c-.545-.032-1.185-.05-1.828-.05-11.926 0-22.435 6.068-28.608 15.284l-.078.124v-12.902h-22.528v104.038h22.938v-57.55c-.144-.993-.226-2.14-.226-3.308 0-13.46 10.91-24.37 24.37-24.37.44 0 .877.01 1.31.034l-.06-.003c14.95 0 22.733 9.83 22.733 27.443v57.958h22.938v-57.754c-.126-.935-.198-2.016-.198-3.113 0-13.572 11.003-24.575 24.576-24.575.502 0 1 .015 1.495.045l-.068-.003c15.36 0 22.938 9.83 22.938 27.443v57.958h22.118v-65.33c.062-.82.097-1.773.097-2.735 0-21.377-17.33-38.707-38.707-38.707-.827 0-1.647.026-2.46.077l.11-.006zm145.817 15.154c-7.3-9.282-18.533-15.19-31.145-15.19-.572 0-1.14.013-1.705.037l.08-.002c-28.725 1.814-51.336 25.556-51.336 54.58s22.61 52.764 51.177 54.57l.158.008c.484.02 1.052.033 1.623.033 12.61 0 23.843-5.907 31.08-15.105l.065-.085v12.698h22.733V896.865h-22.733zm-29.9 73.523c-.613.04-1.328.063-2.05.063-18.436 0-33.38-14.946-33.38-33.382s14.945-33.382 33.38-33.382c18.415 0 33.348 14.91 33.383 33.316v.003c.052.675.082 1.46.082 2.254 0 17.19-13.938 31.13-31.13 31.13-.102 0-.202 0-.303-.002h.015zm743.218-73.523v-12.698h-22.323v104.038h22.527v-58.778c0-17.203 7.373-26.83 22.118-26.83h.37c4.96 0 9.688.978 14.006 2.753l-.244-.09 6.963-20.48c-4.812-1.79-10.37-2.84-16.168-2.867h-.012c-.258-.008-.562-.012-.868-.012-11.15 0-20.91 5.94-26.294 14.827l-.077.137zm-409.6-15.155c-28.4 2.178-50.62 25.76-50.62 54.53 0 29.347 23.12 53.295 52.14 54.624l.118.004c.654.024 1.42.038 2.192.038 15.41 0 29.532-5.507 40.507-14.66l-.102.08-11.06-16.793c-8.235 6.632-18.783 10.7-30.275 10.854h-.034c-.735.066-1.59.104-2.452.104-14.758 0-26.93-11.07-28.665-25.36l-.014-.14h77.21v-8.805c.13-1.352.203-2.924.203-4.512 0-27.31-21.908-49.503-49.108-49.964l-.043-.002zm-28.058 45.464c.88-14.1 12.534-25.204 26.78-25.204.305 0 .61.005.912.015h-.044c.185-.006.403-.008.622-.008 14.038 0 25.458 11.21 25.797 25.166l.002.03zm362.7-30.31c-7.3-9.282-18.532-15.19-31.144-15.19-.57 0-1.14.013-1.704.037l.08-.002c-28.725 1.814-51.336 25.556-51.336 54.58s22.61 52.764 51.178 54.57l.158.008c.484.02 1.052.033 1.623.033 12.61 0 23.842-5.907 31.08-15.105l.064-.085v12.698h22.528V896.865h-22.528zm-30.514 73.523c-.612.04-1.327.063-2.048.063-18.437 0-33.382-14.946-33.382-33.382s14.946-33.382 33.382-33.382c18.414 0 33.347 14.91 33.382 33.316v.003c.052.675.082 1.46.082 2.254 0 17.19-13.937 31.13-31.13 31.13-.1 0-.2 0-.302-.002h.015zm240.64-73.523c-7.3-9.282-18.533-15.19-31.145-15.19-.57 0-1.14.013-1.704.037l.082-.002c-28.726 1.814-51.337 25.556-51.337 54.58s22.61 52.764 51.178 54.57l.158.008c.485.02 1.053.033 1.624.033 12.61 0 23.843-5.907 31.08-15.105l.065-.085v12.698h22.732V855.086h-22.733zm-30.106 73.523c-.612.04-1.327.063-2.048.063-18.437 0-33.382-14.946-33.382-33.382s14.946-33.382 33.382-33.382c18.414 0 33.347 14.91 33.382 33.316v.003c.052.675.082 1.46.082 2.254 0 17.19-13.937 31.13-31.13 31.13-.1 0-.2 0-.302-.002h.015zm-419.43-73.523v-12.698h-22.528v104.038h22.528v-58.778c0-17.203 7.373-26.83 22.118-26.83h.37c4.96 0 9.688.978 14.006 2.753l-.245-.09 6.963-20.48c-4.81-1.79-10.368-2.84-16.167-2.867h-.013c-.198-.005-.432-.007-.666-.007-11.146 0-20.906 5.937-26.29 14.82l-.077.138zm105.062 6.144c10.31.127 19.77 3.65 27.344 9.5l-.106-.08 10.854-18.227c-9.356-7.794-21.503-12.525-34.754-12.525-.67 0-1.337.012-2 .036l.095-.002c-1-.065-2.17-.102-3.346-.102-30.2 0-54.682 24.482-54.682 54.682s24.482 54.682 54.682 54.682c1.177 0 2.345-.037 3.503-.11l-.158.008c.8.042 1.74.066 2.683.066 13.27 0 25.43-4.744 34.88-12.63l-.086.07-10.854-18.226c-7.468 5.77-16.93 9.294-27.21 9.42h-.028c-17.278-1.396-30.77-15.762-30.77-33.28s13.492-31.882 30.65-33.27l.12-.01z"/>
</svg>